<?xml version="1.0" encoding="utf-8" standalone="no"?>
<!DOCTYPE svg PUBLIC "-//W3C//DTD SVG 1.1//EN"
  "http://www.w3.org/Graphics/SVG/1.1/DTD/svg11.dtd">
<svg xmlns:xlink="http://www.w3.org/1999/xlink" width="460.8pt" height="345.6pt" viewBox="0 0 460.8 345.6" xmlns="http://www.w3.org/2000/svg" version="1.1">
 <metadata>
  <rdf:RDF xmlns:dc="http://purl.org/dc/elements/1.1/" xmlns:cc="http://creativecommons.org/ns#" xmlns:rdf="http://www.w3.org/1999/02/22-rdf-syntax-ns#">
   <cc:Work>
    <dc:type rdf:resource="http://purl.org/dc/dcmitype/StillImage"/>
    <dc:date>2024-01-15T21:54:04.148891</dc:date>
    <dc:format>image/svg+xml</dc:format>
    <dc:creator>
     <cc:Agent>
      <dc:title>Matplotlib v3.8.2, https://matplotlib.org/</dc:title>
     </cc:Agent>
    </dc:creator>
   </cc:Work>
  </rdf:RDF>
 </metadata>
 <defs>
  <style type="text/css">*{stroke-linejoin: round; stroke-linecap: butt}</style>
 </defs>
 <g id="figure_1">
  <g id="patch_1">
   <path d="M 0 345.6 
L 460.8 345.6 
L 460.8 0 
L 0 0 
z
" style="fill: #ffffff"/>
  </g>
  <g id="axes_1">
   <g id="patch_2">
    <path d="M 57.6 307.584 
L 414.72 307.584 
L 414.72 41.472 
L 57.6 41.472 
z
"/>
   </g>
   <g id="PolyCollection_1"/>
   <g id="line2d_1">
    <path d="M 73.832727 253.602182 
L 77.112066 252.411288 
L 80.391405 265.078046 
L 83.670744 254.46029 
L 86.950083 254.623516 
L 90.229421 263.558449 
L 93.50876 255.343311 
L 96.788099 256.891965 
L 100.067438 251.221637 
L 103.346777 258.390593 
L 106.626116 265.126672 
L 109.905455 267.283142 
L 113.184793 263.14126 
L 116.464132 265.808227 
L 119.743471 271.296 
L 123.02281 268.599932 
L 126.302149 254.092953 
L 129.581488 259.589835 
L 132.860826 248.545766 
L 136.140165 265.309053 
L 139.419504 261.518253 
L 142.698843 256.365599 
L 145.978182 256.619556 
L 149.257521 259.836303 
L 152.53686 267.913224 
L 155.816198 263.011668 
L 159.095537 265.416772 
L 162.374876 264.830793 
L 165.654215 267.029497 
L 168.933554 259.4242 
L 172.212893 266.469079 
L 175.492231 265.147449 
L 178.77157 266.53839 
L 182.050909 260.942225 
L 185.330248 263.097164 
L 188.609587 263.868267 
L 191.888926 249.907373 
L 195.168264 259.358943 
L 198.447603 268.075136 
L 201.726942 268.004627 
L 205.006281 251.38152 
L 208.28562 249.76809 
L 211.564959 262.588776 
L 214.844298 257.555056 
L 218.123636 269.468277 
L 221.402975 268.543819 
L 224.682314 250.890621 
L 227.961653 253.487146 
L 231.240992 256.748361 
L 234.520331 252.585034 
L 237.799669 267.937515 
L 241.079008 261.19539 
L 244.358347 257.15836 
L 247.637686 257.695519 
L 250.917025 267.392477 
L 254.196364 268.154141 
L 257.475702 264.227731 
L 260.755041 270.550638 
L 264.03438 259.140108 
L 267.313719 265.818176 
L 270.593058 257.558567 
L 273.872397 262.702942 
L 277.151736 266.968185 
L 280.431074 254.363289 
L 283.710413 265.61466 
L 286.989752 262.1969 
L 290.269091 258.464519 
L 293.54843 260.918675 
L 296.827769 265.785521 
L 300.107107 261.573809 
L 303.386446 249.298551 
L 306.665785 254.089733 
L 309.945124 264.394366 
L 313.224463 254.740174 
L 316.503802 263.774236 
L 319.78314 260.723717 
L 323.062479 255.527617 
L 326.341818 265.771049 
L 329.621157 261.181458 
L 332.900496 263.437759 
L 336.179835 261.56264 
L 339.459174 262.70124 
L 342.738512 257.863103 
L 346.017851 264.53641 
L 349.29719 267.371245 
L 352.576529 259.681106 
L 355.855868 262.928462 
L 359.135207 262.305714 
L 362.414545 247.104 
L 365.693884 265.581665 
L 368.973223 260.846954 
L 372.252562 265.771558 
L 375.531901 268.346247 
L 378.81124 261.590648 
L 382.090579 268.171702 
L 385.369917 249.28662 
L 388.649256 257.827353 
L 391.928595 270.341033 
L 395.207934 261.171666 
L 398.487273 265.215119 
" clip-path="url(#p5fb1f73d4c)" style="fill: none; stroke: #ffffff; stroke-width: 1.5; stroke-linecap: square"/>
   </g>
   <g id="line2d_2">
    <path d="M 73.832727 240.065104 
L 77.112066 233.867725 
L 80.391405 233.264957 
L 83.670744 231.095679 
L 86.950083 239.885905 
L 90.229421 230.851499 
L 93.50876 229.940003 
L 96.788099 232.920752 
L 100.067438 235.299051 
L 103.346777 235.034986 
L 106.626116 238.890538 
L 109.905455 238.952564 
L 113.184793 247.104 
L 116.464132 232.692174 
L 119.743471 232.170869 
L 123.02281 232.707718 
L 126.302149 238.082804 
L 129.581488 229.221888 
L 132.860826 244.590474 
L 136.140165 240.298996 
L 139.419504 232.151394 
L 142.698843 235.891872 
L 145.978182 240.226583 
L 149.257521 237.546118 
L 152.53686 236.323905 
L 155.816198 234.950441 
L 159.095537 233.176563 
L 162.374876 234.039459 
L 165.654215 230.272431 
L 168.933554 243.240678 
L 172.212893 236.730396 
L 175.492231 227.616492 
L 178.77157 222.912 
L 182.050909 235.064101 
L 185.330248 242.289442 
L 188.609587 241.571925 
L 191.888926 227.029579 
L 195.168264 231.782133 
L 198.447603 232.876249 
L 201.726942 241.550665 
L 205.006281 239.894304 
L 208.28562 233.184373 
L 211.564959 226.260205 
L 214.844298 242.233716 
L 218.123636 240.096551 
L 221.402975 235.904392 
L 224.682314 241.362182 
L 227.961653 234.629778 
L 231.240992 240.23742 
L 234.520331 240.865179 
L 237.799669 231.414067 
L 241.079008 238.604169 
L 244.358347 239.047601 
L 247.637686 227.881248 
L 250.917025 234.719017 
L 254.196364 225.698117 
L 257.475702 242.09813 
L 260.755041 239.087406 
L 264.03438 236.468017 
L 267.313719 225.745924 
L 270.593058 233.16172 
L 273.872397 229.309736 
L 277.151736 230.453786 
L 280.431074 228.366694 
L 283.710413 238.940506 
L 286.989752 237.717215 
L 290.269091 238.754795 
L 293.54843 231.543944 
L 296.827769 235.386726 
L 300.107107 242.10073 
L 303.386446 237.429157 
L 306.665785 231.810564 
L 309.945124 241.083514 
L 313.224463 245.89507 
L 316.503802 232.927482 
L 319.78314 228.096403 
L 323.062479 225.935203 
L 326.341818 230.416956 
L 329.621157 238.399107 
L 332.900496 240.800943 
L 336.179835 238.378978 
L 339.459174 233.561564 
L 342.738512 231.242255 
L 346.017851 231.01827 
L 349.29719 239.483301 
L 352.576529 231.408827 
L 355.855868 225.862048 
L 359.135207 242.334718 
L 362.414545 233.443989 
L 365.693884 234.721863 
L 368.973223 230.64065 
L 372.252562 229.768929 
L 375.531901 237.531614 
L 378.81124 238.081474 
L 382.090579 227.210196 
L 385.369917 238.327403 
L 388.649256 241.63337 
L 391.928595 232.295495 
L 395.207934 229.05309 
L 398.487273 238.0649 
" clip-path="url(#p5fb1f73d4c)" style="fill: none; stroke: #ffffff; stroke-width: 1.5; stroke-linecap: square"/>
   </g>
   <g id="line2d_3">
    <path d="M 73.832727 206.163055 
L 77.112066 208.001435 
L 80.391405 219.133581 
L 83.670744 212.106939 
L 86.950083 203.620213 
L 90.229421 221.372809 
L 93.50876 221.169868 
L 96.788099 211.899233 
L 100.067438 218.697592 
L 103.346777 202.390687 
L 106.626116 206.659109 
L 109.905455 209.579023 
L 113.184793 211.390802 
L 116.464132 216.138184 
L 119.743471 208.808668 
L 123.02281 208.301727 
L 126.302149 209.351723 
L 129.581488 206.50026 
L 132.860826 204.215197 
L 136.140165 205.500411 
L 139.419504 216.315788 
L 142.698843 206.592391 
L 145.978182 216.753238 
L 149.257521 214.085677 
L 152.53686 212.583375 
L 155.816198 209.697708 
L 159.095537 215.798786 
L 162.374876 221.578102 
L 165.654215 212.674846 
L 168.933554 219.768359 
L 172.212893 217.917961 
L 175.492231 212.202374 
L 178.77157 213.572891 
L 182.050909 216.851103 
L 185.330248 204.34024 
L 188.609587 206.674161 
L 191.888926 203.669276 
L 195.168264 208.299875 
L 198.447603 220.435668 
L 201.726942 219.40824 
L 205.006281 216.903156 
L 208.28562 220.734234 
L 211.564959 214.318834 
L 214.844298 213.417495 
L 218.123636 213.596888 
L 221.402975 208.292482 
L 224.682314 218.973091 
L 227.961653 209.520908 
L 231.240992 216.306661 
L 234.520331 210.507855 
L 237.799669 216.303788 
L 241.079008 213.07556 
L 244.358347 213.309369 
L 247.637686 211.144037 
L 250.917025 213.212358 
L 254.196364 207.428775 
L 257.475702 222.912 
L 260.755041 215.628723 
L 264.03438 204.557065 
L 267.313719 211.770814 
L 270.593058 208.480566 
L 273.872397 203.175994 
L 277.151736 198.72 
L 280.431074 211.52128 
L 283.710413 212.145361 
L 286.989752 211.483806 
L 290.269091 221.569525 
L 293.54843 210.979804 
L 296.827769 209.961079 
L 300.107107 213.560281 
L 303.386446 214.543236 
L 306.665785 209.303761 
L 309.945124 215.703684 
L 313.224463 213.389408 
L 316.503802 208.172189 
L 319.78314 217.395151 
L 323.062479 205.52989 
L 326.341818 206.063137 
L 329.621157 222.44172 
L 332.900496 208.465165 
L 336.179835 207.842293 
L 339.459174 219.328043 
L 342.738512 221.846915 
L 346.017851 214.415118 
L 349.29719 202.779915 
L 352.576529 210.446468 
L 355.855868 204.554101 
L 359.135207 206.181189 
L 362.414545 208.44949 
L 365.693884 206.364658 
L 368.973223 217.222694 
L 372.252562 207.664429 
L 375.531901 220.52588 
L 378.81124 219.679782 
L 382.090579 210.094341 
L 385.369917 215.543011 
L 388.649256 215.428529 
L 391.928595 211.225237 
L 395.207934 207.331169 
L 398.487273 200.197593 
" clip-path="url(#p5fb1f73d4c)" style="fill: none; stroke: #ffffff; stroke-width: 1.5; stroke-linecap: square"/>
   </g>
   <g id="line2d_4">
    <path d="M 73.832727 185.455997 
L 77.112066 181.295753 
L 80.391405 184.80337 
L 83.670744 195.71628 
L 86.950083 179.025581 
L 90.229421 192.303985 
L 93.50876 178.945664 
L 96.788099 176.557325 
L 100.067438 193.005261 
L 103.346777 191.446007 
L 106.626116 192.205706 
L 109.905455 186.001712 
L 113.184793 181.548216 
L 116.464132 191.164668 
L 119.743471 187.825429 
L 123.02281 187.393843 
L 126.302149 192.206497 
L 129.581488 179.135405 
L 132.860826 177.29432 
L 136.140165 196.231421 
L 139.419504 182.624945 
L 142.698843 189.520613 
L 145.978182 192.284302 
L 149.257521 193.347993 
L 152.53686 187.690813 
L 155.816198 185.70801 
L 159.095537 187.226493 
L 162.374876 192.673845 
L 165.654215 193.866254 
L 168.933554 178.870415 
L 172.212893 191.187063 
L 175.492231 192.685077 
L 178.77157 189.969207 
L 182.050909 189.706233 
L 185.330248 184.387458 
L 188.609587 183.512316 
L 191.888926 196.823293 
L 195.168264 182.087912 
L 198.447603 198.72 
L 201.726942 195.819304 
L 205.006281 185.778017 
L 208.28562 193.892886 
L 211.564959 189.679387 
L 214.844298 191.700961 
L 218.123636 184.821891 
L 221.402975 186.253175 
L 224.682314 181.26769 
L 227.961653 195.623434 
L 231.240992 188.298365 
L 234.520331 184.06479 
L 237.799669 190.214849 
L 241.079008 192.232956 
L 244.358347 185.956777 
L 247.637686 177.450471 
L 250.917025 186.395319 
L 254.196364 182.742646 
L 257.475702 190.09845 
L 260.755041 193.474613 
L 264.03438 196.677209 
L 267.313719 194.084679 
L 270.593058 181.537783 
L 273.872397 188.32345 
L 277.151736 184.273556 
L 280.431074 174.528 
L 283.710413 193.37643 
L 286.989752 193.476679 
L 290.269091 191.702685 
L 293.54843 192.47044 
L 296.827769 182.043046 
L 300.107107 177.634089 
L 303.386446 181.319451 
L 306.665785 183.615656 
L 309.945124 191.884832 
L 313.224463 188.989901 
L 316.503802 184.813669 
L 319.78314 198.018832 
L 323.062479 188.243369 
L 326.341818 184.889881 
L 329.621157 194.235957 
L 332.900496 187.714957 
L 336.179835 184.612687 
L 339.459174 178.826342 
L 342.738512 191.131038 
L 346.017851 187.078133 
L 349.29719 189.139862 
L 352.576529 180.571958 
L 355.855868 184.95973 
L 359.135207 195.518116 
L 362.414545 180.802795 
L 365.693884 183.567131 
L 368.973223 193.447533 
L 372.252562 182.547192 
L 375.531901 180.010473 
L 378.81124 190.061876 
L 382.090579 179.53317 
L 385.369917 196.619735 
L 388.649256 189.733302 
L 391.928595 189.16195 
L 395.207934 182.299635 
L 398.487273 177.485769 
" clip-path="url(#p5fb1f73d4c)" style="fill: none; stroke: #ffffff; stroke-width: 1.5; stroke-linecap: square"/>
   </g>
   <g id="line2d_5">
    <path d="M 73.832727 165.036943 
L 77.112066 158.236123 
L 80.391405 160.130757 
L 83.670744 167.088032 
L 86.950083 163.23636 
L 90.229421 173.109647 
L 93.50876 162.299483 
L 96.788099 156.243816 
L 100.067438 163.382627 
L 103.346777 150.336 
L 106.626116 170.980489 
L 109.905455 153.89869 
L 113.184793 161.359918 
L 116.464132 156.58061 
L 119.743471 165.901375 
L 123.02281 158.469459 
L 126.302149 173.556896 
L 129.581488 163.973428 
L 132.860826 170.096846 
L 136.140165 159.880716 
L 139.419504 156.234763 
L 142.698843 162.105104 
L 145.978182 164.769244 
L 149.257521 155.994041 
L 152.53686 163.918514 
L 155.816198 164.961593 
L 159.095537 156.560346 
L 162.374876 158.720133 
L 165.654215 155.890292 
L 168.933554 165.019923 
L 172.212893 159.513624 
L 175.492231 158.893118 
L 178.77157 173.908806 
L 182.050909 169.055682 
L 185.330248 163.219046 
L 188.609587 167.539617 
L 191.888926 151.620405 
L 195.168264 159.125701 
L 198.447603 157.453269 
L 201.726942 161.046779 
L 205.006281 152.559407 
L 208.28562 163.682457 
L 211.564959 152.116387 
L 214.844298 168.915509 
L 218.123636 158.169972 
L 221.402975 170.218301 
L 224.682314 167.153666 
L 227.961653 158.810081 
L 231.240992 160.702469 
L 234.520331 172.655324 
L 237.799669 161.430738 
L 241.079008 171.516978 
L 244.358347 160.028677 
L 247.637686 163.296208 
L 250.917025 165.813634 
L 254.196364 158.564127 
L 257.475702 161.718516 
L 260.755041 154.119167 
L 264.03438 174.528 
L 267.313719 167.490461 
L 270.593058 154.32746 
L 273.872397 166.472533 
L 277.151736 157.963469 
L 280.431074 165.277719 
L 283.710413 163.22223 
L 286.989752 157.433904 
L 290.269091 168.181623 
L 293.54843 164.880332 
L 296.827769 160.360646 
L 300.107107 168.771364 
L 303.386446 171.30493 
L 306.665785 167.375505 
L 309.945124 167.684239 
L 313.224463 165.939674 
L 316.503802 160.858478 
L 319.78314 165.49235 
L 323.062479 160.770164 
L 326.341818 162.164563 
L 329.621157 163.058165 
L 332.900496 163.166372 
L 336.179835 159.400519 
L 339.459174 161.648434 
L 342.738512 157.895085 
L 346.017851 168.526948 
L 349.29719 161.388465 
L 352.576529 158.77904 
L 355.855868 169.108421 
L 359.135207 162.694173 
L 362.414545 165.285347 
L 365.693884 152.211793 
L 368.973223 159.401145 
L 372.252562 165.01554 
L 375.531901 156.485108 
L 378.81124 162.436485 
L 382.090579 171.892633 
L 385.369917 153.958567 
L 388.649256 158.755971 
L 391.928595 160.582248 
L 395.207934 164.072105 
L 398.487273 170.58269 
" clip-path="url(#p5fb1f73d4c)" style="fill: none; stroke: #ffffff; stroke-width: 1.5; stroke-linecap: square"/>
   </g>
   <g id="line2d_6">
    <path d="M 73.832727 141.651456 
L 77.112066 140.914772 
L 80.391405 135.098241 
L 83.670744 149.982893 
L 86.950083 143.481279 
L 90.229421 128.166406 
L 93.50876 132.471007 
L 96.788099 133.030912 
L 100.067438 150.336 
L 103.346777 132.360122 
L 106.626116 140.209132 
L 109.905455 126.144 
L 113.184793 142.992894 
L 116.464132 142.220026 
L 119.743471 140.529877 
L 123.02281 142.292672 
L 126.302149 139.906197 
L 129.581488 146.737875 
L 132.860826 128.908259 
L 136.140165 149.190203 
L 139.419504 138.501169 
L 142.698843 141.388008 
L 145.978182 146.093652 
L 149.257521 131.429147 
L 152.53686 149.58651 
L 155.816198 142.551005 
L 159.095537 137.192361 
L 162.374876 142.712537 
L 165.654215 137.312424 
L 168.933554 149.791624 
L 172.212893 136.537304 
L 175.492231 133.738695 
L 178.77157 142.617688 
L 182.050909 127.331026 
L 185.330248 135.661457 
L 188.609587 129.529008 
L 191.888926 142.943062 
L 195.168264 139.929553 
L 198.447603 133.238246 
L 201.726942 148.794609 
L 205.006281 131.918285 
L 208.28562 138.91337 
L 211.564959 132.025821 
L 214.844298 144.373949 
L 218.123636 132.084756 
L 221.402975 130.574443 
L 224.682314 132.265363 
L 227.961653 135.517162 
L 231.240992 136.800234 
L 234.520331 140.680278 
L 237.799669 138.137977 
L 241.079008 137.368201 
L 244.358347 146.018367 
L 247.637686 129.003138 
L 250.917025 141.224975 
L 254.196364 145.300084 
L 257.475702 135.894091 
L 260.755041 133.504492 
L 264.03438 135.793126 
L 267.313719 144.82636 
L 270.593058 140.688412 
L 273.872397 133.417285 
L 277.151736 133.593612 
L 280.431074 128.765332 
L 283.710413 139.931172 
L 286.989752 136.049899 
L 290.269091 146.566898 
L 293.54843 133.396211 
L 296.827769 129.685484 
L 300.107107 132.751142 
L 303.386446 128.285495 
L 306.665785 140.906149 
L 309.945124 144.622444 
L 313.224463 137.598221 
L 316.503802 138.440802 
L 319.78314 136.198842 
L 323.062479 132.719989 
L 326.341818 137.655178 
L 329.621157 137.472984 
L 332.900496 134.75004 
L 336.179835 132.038708 
L 339.459174 136.74285 
L 342.738512 137.13313 
L 346.017851 128.074773 
L 349.29719 128.077893 
L 352.576529 142.907326 
L 355.855868 135.767816 
L 359.135207 133.794355 
L 362.414545 138.127261 
L 365.693884 132.747579 
L 368.973223 133.026069 
L 372.252562 133.266309 
L 375.531901 132.947294 
L 378.81124 142.268265 
L 382.090579 137.306335 
L 385.369917 136.658471 
L 388.649256 140.468608 
L 391.928595 138.411337 
L 395.207934 136.988788 
L 398.487273 141.921956 
" clip-path="url(#p5fb1f73d4c)" style="fill: none; stroke: #ffffff; stroke-width: 1.5; stroke-linecap: square"/>
   </g>
   <g id="line2d_7">
    <path d="M 73.832727 114.46106 
L 77.112066 119.603718 
L 80.391405 108.833167 
L 83.670744 116.897213 
L 86.950083 114.386564 
L 90.229421 120.134462 
L 93.50876 109.263337 
L 96.788099 119.396571 
L 100.067438 104.061932 
L 103.346777 114.469638 
L 106.626116 121.571357 
L 109.905455 117.897272 
L 113.184793 112.178238 
L 116.464132 107.812979 
L 119.743471 114.484142 
L 123.02281 114.486427 
L 126.302149 115.848593 
L 129.581488 108.536175 
L 132.860826 114.049656 
L 136.140165 109.258979 
L 139.419504 101.985485 
L 142.698843 117.775882 
L 145.978182 112.501004 
L 149.257521 111.477482 
L 152.53686 119.48492 
L 155.816198 106.135894 
L 159.095537 113.936935 
L 162.374876 111.744381 
L 165.654215 112.574033 
L 168.933554 109.767034 
L 172.212893 120.569104 
L 175.492231 116.434011 
L 178.77157 107.229944 
L 182.050909 110.216877 
L 185.330248 112.306104 
L 188.609587 115.599487 
L 191.888926 112.222507 
L 195.168264 117.299338 
L 198.447603 110.328013 
L 201.726942 108.049144 
L 205.006281 114.366093 
L 208.28562 109.314874 
L 211.564959 115.322286 
L 214.844298 103.660156 
L 218.123636 124.640184 
L 221.402975 124.560435 
L 224.682314 126.144 
L 227.961653 118.388492 
L 231.240992 113.674402 
L 234.520331 115.226433 
L 237.799669 116.852115 
L 241.079008 108.185092 
L 244.358347 114.978315 
L 247.637686 116.198722 
L 250.917025 113.134454 
L 254.196364 112.935226 
L 257.475702 109.74957 
L 260.755041 115.692068 
L 264.03438 117.557324 
L 267.313719 114.919643 
L 270.593058 125.344039 
L 273.872397 112.048749 
L 277.151736 107.799212 
L 280.431074 120.25665 
L 283.710413 113.558923 
L 286.989752 112.461091 
L 290.269091 124.454173 
L 293.54843 123.326939 
L 296.827769 115.911111 
L 300.107107 115.94239 
L 303.386446 113.079434 
L 306.665785 113.343224 
L 309.945124 109.04343 
L 313.224463 112.239379 
L 316.503802 101.952 
L 319.78314 106.93552 
L 323.062479 117.025698 
L 326.341818 117.615646 
L 329.621157 116.800832 
L 332.900496 111.258049 
L 336.179835 113.961512 
L 339.459174 109.947527 
L 342.738512 110.963947 
L 346.017851 109.705626 
L 349.29719 115.68472 
L 352.576529 126.058348 
L 355.855868 110.175917 
L 359.135207 116.816871 
L 362.414545 114.024339 
L 365.693884 107.249462 
L 368.973223 119.872288 
L 372.252562 115.470956 
L 375.531901 118.050134 
L 378.81124 111.569459 
L 382.090579 125.798906 
L 385.369917 114.796559 
L 388.649256 110.172992 
L 391.928595 112.360583 
L 395.207934 109.232507 
L 398.487273 110.258371 
" clip-path="url(#p5fb1f73d4c)" style="fill: none; stroke: #ffffff; stroke-width: 1.5; stroke-linecap: square"/>
   </g>
   <g id="line2d_8">
    <path d="M 73.832727 89.277987 
L 77.112066 97.001808 
L 80.391405 90.347828 
L 83.670744 89.722993 
L 86.950083 96.480831 
L 90.229421 94.862688 
L 93.50876 91.565255 
L 96.788099 84.337116 
L 100.067438 95.350975 
L 103.346777 89.092549 
L 106.626116 86.597446 
L 109.905455 91.904416 
L 113.184793 89.942207 
L 116.464132 89.076358 
L 119.743471 92.197823 
L 123.02281 88.714581 
L 126.302149 90.5129 
L 129.581488 85.922005 
L 132.860826 91.695451 
L 136.140165 84.111969 
L 139.419504 85.243142 
L 142.698843 95.128551 
L 145.978182 89.361708 
L 149.257521 91.52407 
L 152.53686 92.52737 
L 155.816198 80.214527 
L 159.095537 87.687264 
L 162.374876 83.727379 
L 165.654215 85.212087 
L 168.933554 96.078274 
L 172.212893 98.037269 
L 175.492231 86.882877 
L 178.77157 94.413117 
L 182.050909 90.831818 
L 185.330248 92.435742 
L 188.609587 88.934557 
L 191.888926 88.603308 
L 195.168264 86.676002 
L 198.447603 84.847247 
L 201.726942 83.607151 
L 205.006281 92.673753 
L 208.28562 87.389009 
L 211.564959 90.022937 
L 214.844298 91.194672 
L 218.123636 88.936738 
L 221.402975 93.053679 
L 224.682314 92.594441 
L 227.961653 90.944595 
L 231.240992 89.450976 
L 234.520331 99.670732 
L 237.799669 91.181186 
L 241.079008 89.739365 
L 244.358347 92.56487 
L 247.637686 90.644751 
L 250.917025 90.423313 
L 254.196364 92.491195 
L 257.475702 93.344607 
L 260.755041 101.709361 
L 264.03438 88.585712 
L 267.313719 99.59769 
L 270.593058 87.705435 
L 273.872397 90.892273 
L 277.151736 89.493035 
L 280.431074 94.917416 
L 283.710413 89.508879 
L 286.989752 97.280326 
L 290.269091 80.583252 
L 293.54843 90.628797 
L 296.827769 80.763347 
L 300.107107 89.753577 
L 303.386446 77.76 
L 306.665785 91.549637 
L 309.945124 90.845718 
L 313.224463 90.397766 
L 316.503802 80.560758 
L 319.78314 89.26954 
L 323.062479 97.039407 
L 326.341818 85.890989 
L 329.621157 88.593164 
L 332.900496 86.764288 
L 336.179835 94.255225 
L 339.459174 85.948404 
L 342.738512 94.62938 
L 346.017851 91.826367 
L 349.29719 97.510148 
L 352.576529 98.048286 
L 355.855868 95.547343 
L 359.135207 92.423281 
L 362.414545 91.409553 
L 365.693884 95.746478 
L 368.973223 92.058285 
L 372.252562 88.685925 
L 375.531901 92.108249 
L 378.81124 101.952 
L 382.090579 96.603083 
L 385.369917 93.622228 
L 388.649256 82.624606 
L 391.928595 87.923256 
L 395.207934 96.409522 
L 398.487273 84.36789 
" clip-path="url(#p5fb1f73d4c)" style="fill: none; stroke: #ffffff; stroke-width: 1.5; stroke-linecap: square"/>
   </g>
   <g id="line2d_9">
    <path d="M 73.832727 69.426581 
L 77.112066 70.931433 
L 80.391405 69.71468 
L 83.670744 73.170131 
L 86.950083 60.888312 
L 90.229421 63.22192 
L 93.50876 66.729872 
L 96.788099 61.756041 
L 100.067438 61.106514 
L 103.346777 72.393436 
L 106.626116 70.75697 
L 109.905455 60.361857 
L 113.184793 61.43126 
L 116.464132 66.490848 
L 119.743471 69.133814 
L 123.02281 60.840613 
L 126.302149 69.85503 
L 129.581488 60.195525 
L 132.860826 59.876116 
L 136.140165 70.811735 
L 139.419504 58.797106 
L 142.698843 64.695739 
L 145.978182 64.431791 
L 149.257521 68.789 
L 152.53686 68.034826 
L 155.816198 55.632695 
L 159.095537 72.097243 
L 162.374876 69.690281 
L 165.654215 66.752788 
L 168.933554 54.042054 
L 172.212893 57.437945 
L 175.492231 58.140022 
L 178.77157 68.319475 
L 182.050909 68.839953 
L 185.330248 60.095241 
L 188.609587 57.820068 
L 191.888926 63.624184 
L 195.168264 68.040408 
L 198.447603 66.897972 
L 201.726942 60.956863 
L 205.006281 62.649709 
L 208.28562 71.37983 
L 211.564959 65.772998 
L 214.844298 69.688098 
L 218.123636 69.733853 
L 221.402975 71.006681 
L 224.682314 68.195658 
L 227.961653 66.695141 
L 231.240992 71.441362 
L 234.520331 62.153603 
L 237.799669 62.420356 
L 241.079008 61.622318 
L 244.358347 68.470278 
L 247.637686 72.222376 
L 250.917025 70.00905 
L 254.196364 75.524664 
L 257.475702 65.182151 
L 260.755041 73.983162 
L 264.03438 73.656613 
L 267.313719 74.040379 
L 270.593058 71.558708 
L 273.872397 69.467347 
L 277.151736 62.5458 
L 280.431074 53.568 
L 283.710413 77.76 
L 286.989752 61.420657 
L 290.269091 72.446045 
L 293.54843 69.712226 
L 296.827769 70.141102 
L 300.107107 69.927129 
L 303.386446 54.754236 
L 306.665785 68.06759 
L 309.945124 67.278565 
L 313.224463 76.271123 
L 316.503802 68.71767 
L 319.78314 60.03218 
L 323.062479 61.195343 
L 326.341818 63.370093 
L 329.621157 75.56958 
L 332.900496 59.304865 
L 336.179835 64.331602 
L 339.459174 57.224854 
L 342.738512 64.548503 
L 346.017851 76.352503 
L 349.29719 72.458299 
L 352.576529 68.66038 
L 355.855868 62.455129 
L 359.135207 66.007008 
L 362.414545 59.815742 
L 365.693884 68.153347 
L 368.973223 53.78448 
L 372.252562 73.528927 
L 375.531901 61.428753 
L 378.81124 71.706227 
L 382.090579 61.870144 
L 385.369917 68.655367 
L 388.649256 61.846323 
L 391.928595 60.465068 
L 395.207934 53.701622 
L 398.487273 64.659837 
" clip-path="url(#p5fb1f73d4c)" style="fill: none; stroke: #ffffff; stroke-width: 1.5; stroke-linecap: square"/>
   </g>
   <g id="patch_3">
    <path d="M 57.6 307.584 
L 57.6 41.472 
" style="fill: none; stroke: #000000; stroke-width: 0.8; stroke-linejoin: miter; stroke-linecap: square"/>
   </g>
   <g id="patch_4">
    <path d="M 414.72 307.584 
L 414.72 41.472 
" style="fill: none; stroke: #000000; stroke-width: 0.8; stroke-linejoin: miter; stroke-linecap: square"/>
   </g>
   <g id="patch_5">
    <path d="M 57.6 307.584 
L 414.72 307.584 
" style="fill: none; stroke: #000000; stroke-width: 0.8; stroke-linejoin: miter; stroke-linecap: square"/>
   </g>
   <g id="patch_6">
    <path d="M 57.6 41.472 
L 414.72 41.472 
" style="fill: none; stroke: #000000; stroke-width: 0.8; stroke-linejoin: miter; stroke-linecap: square"/>
   </g>
  </g>
 </g>
 <defs>
  <clipPath id="p5fb1f73d4c">
   <rect x="57.6" y="41.472" width="357.12" height="266.112"/>
  </clipPath>
 </defs>
</svg>
