<?xml version='1.0' encoding='UTF-8' standalone='no'?>
<svg width='4200' height='2970' viewBox='105 74 3990 2822' xmlns='http://www.w3.org/2000/svg' version='1.1'><path d="M105 99h1758v217H105zM1888 99h1179v217H1888zM3092 99h873v217H3092z" fill='#85b'/><path d="M105 341h1749v217H105zM1879 341h694v217H1879zM2598 341h734v217H2598zM3357 341h608v217H3357z" fill='#44a'/><path d="M105 583h1211v217H105zM1341 583h980v217H1341zM2346 583h1362v217H2346zM3733 583h232v217H3733z" fill='#07e'/><path d="M105 825h1688v217H105zM1818 825h761v217H1818zM2604 825h677v217H2604zM3306 825h659v217H3306z" fill='#922'/><path d="M105 1067h1721v217H105zM1851 1067h1647v217H1851zM3523 1067h442v217H3523z" fill='#371'/><path d="M105 1309h1183v217H105zM1313 1309h1727v217H1313zM3065 1309h900v217H3065z" fill='#933'/><path d="M105 1551h893v217H105zM1023 1551h1591v217H1023zM2639 1551h1326v217H2639z" fill='#b6c'/></svg>