<?xml version='1.0' encoding='UTF-8' standalone='no'?>
<svg width='4200' height='2970' viewBox='105 74 3990 2822' xmlns='http://www.w3.org/2000/svg' version='1.1'><path d="M105 74h1460v392H105zM1590 74h1659v392H1590zM3274 74h691v392H3274z" fill='#812'/><path d="M105 491h1177v392H105zM1307 491h1849v392H1307zM3181 491h784v392H3181z" fill='#7bc'/><path d="M105 908h1810v392H105zM1940 908h1511v392H1940zM3476 908h489v392H3476z" fill='#7fb'/><path d="M105 1325h855v392H105zM985 1325h1664v392H985zM2674 1325h1073v392H2674zM3772 1325h193v392H3772z" fill='#1f4'/><path d="M105 1742h1010v392H105zM1140 1742h1284v392H1140zM2449 1742h1516v392H2449z" fill='#90c'/><path d="M105 2159h1128v392H105zM1258 2159h1461v392H1258zM2744 2159h822v392H2744zM3591 2159h374v392H3591z" fill='#63d'/><path d="M105 2576h1885v392H105zM2015 2576h1551v392H2015zM3591 2576h374v392H3591z" fill='#7c3'/></svg>