<?xml version='1.0' encoding='UTF-8' standalone='no'?>
<svg width='4200' height='2970' viewBox='105 74 3990 2822' xmlns='http://www.w3.org/2000/svg' version='1.1'>
<path id='background' d='M105 74 L3990 74 L3990 2822 L105 2822 L105 74' fill='#fff'/>
<defs><clipPath id='clip'><path id='background' d='M105 74 L3990 74 L3990 2822 L105 2822 L105 74' fill='none' /></clipPath></defs>
<path d="M148 721h90v90H148z" stroke='#000' stroke-width='10' fill='none' clip-path='url(#clip)'/>
<path d="M118 691h150v150H118z" stroke='#000' stroke-width='10' fill='none' clip-path='url(#clip)'/>
<path d="M88 661h210v210H88z" stroke='#000' stroke-width='10' fill='none' clip-path='url(#clip)'/>
<path d="M58 631h270v270H58z" stroke='#000' stroke-width='10' fill='none' clip-path='url(#clip)'/>
<path d="M28 601h330v330H28z" stroke='#000' stroke-width='10' fill='none' clip-path='url(#clip)'/>
<path d="M-2 571h390v390H-2z" stroke='#000' stroke-width='10' fill='none' clip-path='url(#clip)'/>
<path d="M-32 541h450v450H-32z" stroke='#000' stroke-width='10' fill='none' clip-path='url(#clip)'/>
<path d="M-62 511h510v510H-62z" stroke='#000' stroke-width='10' fill='none' clip-path='url(#clip)'/>
<path d="M-92 481h570v570H-92z" stroke='#000' stroke-width='10' fill='none' clip-path='url(#clip)'/>
<path d="M-122 451h630v630H-122z" stroke='#000' stroke-width='10' fill='none' clip-path='url(#clip)'/>
<path d="M-152 421h690v690H-152z" stroke='#000' stroke-width='10' fill='none' clip-path='url(#clip)'/>
<path d="M-182 391h750v750H-182z" stroke='#000' stroke-width='10' fill='none' clip-path='url(#clip)'/>
<path d="M-212 361h810v810H-212z" stroke='#000' stroke-width='10' fill='none' clip-path='url(#clip)'/>
<path d="M-242 331h870v870H-242z" stroke='#000' stroke-width='10' fill='none' clip-path='url(#clip)'/>
<path d="M-272 301h930v930H-272z" stroke='#000' stroke-width='10' fill='none' clip-path='url(#clip)'/>
<path d="M-302 271h990v990H-302z" stroke='#000' stroke-width='10' fill='none' clip-path='url(#clip)'/>
<path d="M-332 241h1050v1050H-332z" stroke='#000' stroke-width='10' fill='none' clip-path='url(#clip)'/>
<path d="M-362 211h1110v1110H-362z" stroke='#000' stroke-width='10' fill='none' clip-path='url(#clip)'/>
<path d="M-392 181h1170v1170H-392z" stroke='#000' stroke-width='10' fill='none' clip-path='url(#clip)'/>
<path d="M-422 151h1230v1230H-422z" stroke='#000' stroke-width='10' fill='none' clip-path='url(#clip)'/>
<path d="M-452 121h1290v1290H-452z" stroke='#000' stroke-width='10' fill='none' clip-path='url(#clip)'/>
<path d="M-482 91h1350v1350H-482z" stroke='#000' stroke-width='10' fill='none' clip-path='url(#clip)'/>
<path d="M-512 61h1410v1410H-512z" stroke='#000' stroke-width='10' fill='none' clip-path='url(#clip)'/>
<path d="M-542 31h1470v1470H-542z" stroke='#000' stroke-width='10' fill='none' clip-path='url(#clip)'/>
<path d="M-572 1h1530v1530H-572z" stroke='#000' stroke-width='10' fill='none' clip-path='url(#clip)'/>
<path d="M-602 -29h1590v1590H-602z" stroke='#000' stroke-width='10' fill='none' clip-path='url(#clip)'/>
<path d="M-632 -59h1650v1650H-632z" stroke='#000' stroke-width='10' fill='none' clip-path='url(#clip)'/>
<path d="M-662 -89h1710v1710H-662z" stroke='#000' stroke-width='10' fill='none' clip-path='url(#clip)'/>
<path d="M-692 -119h1770v1770H-692z" stroke='#000' stroke-width='10' fill='none' clip-path='url(#clip)'/>
<path d="M-722 -149h1830v1830H-722z" stroke='#000' stroke-width='10' fill='none' clip-path='url(#clip)'/>
<path d="M-752 -179h1890v1890H-752z" stroke='#000' stroke-width='10' fill='none' clip-path='url(#clip)'/>
<path d="M-782 -209h1950v1950H-782z" stroke='#000' stroke-width='10' fill='none' clip-path='url(#clip)'/>
<path d="M-812 -239h2010v2010H-812z" stroke='#000' stroke-width='10' fill='none' clip-path='url(#clip)'/>
<path d="M-842 -269h2070v2070H-842z" stroke='#000' stroke-width='10' fill='none' clip-path='url(#clip)'/>
<path d="M-872 -299h2130v2130H-872z" stroke='#000' stroke-width='10' fill='none' clip-path='url(#clip)'/>
<path d="M-902 -329h2190v2190H-902z" stroke='#000' stroke-width='10' fill='none' clip-path='url(#clip)'/>
<path d="M-932 -359h2250v2250H-932z" stroke='#000' stroke-width='10' fill='none' clip-path='url(#clip)'/>
<path d="M-962 -389h2310v2310H-962z" stroke='#000' stroke-width='10' fill='none' clip-path='url(#clip)'/>
<path d="M-992 -419h2370v2370H-992z" stroke='#000' stroke-width='10' fill='none' clip-path='url(#clip)'/>
<path d="M-1022 -449h2430v2430H-1022z" stroke='#000' stroke-width='10' fill='none' clip-path='url(#clip)'/>
<path d="M-1052 -479h2490v2490H-1052z" stroke='#000' stroke-width='10' fill='none' clip-path='url(#clip)'/>
<path d="M-1082 -509h2550v2550H-1082z" stroke='#000' stroke-width='10' fill='none' clip-path='url(#clip)'/>
<path d="M-1112 -539h2610v2610H-1112z" stroke='#000' stroke-width='10' fill='none' clip-path='url(#clip)'/>
<path d="M-1142 -569h2670v2670H-1142z" stroke='#000' stroke-width='10' fill='none' clip-path='url(#clip)'/>
<path d="M-1172 -599h2730v2730H-1172z" stroke='#000' stroke-width='10' fill='none' clip-path='url(#clip)'/>
<path d="M-1202 -629h2790v2790H-1202z" stroke='#000' stroke-width='10' fill='none' clip-path='url(#clip)'/>
<path d="M-1232 -659h2850v2850H-1232z" stroke='#000' stroke-width='10' fill='none' clip-path='url(#clip)'/>
<path d="M-1262 -689h2910v2910H-1262z" stroke='#000' stroke-width='10' fill='none' clip-path='url(#clip)'/>
<path d="M-1292 -719h2970v2970H-1292z" stroke='#000' stroke-width='10' fill='none' clip-path='url(#clip)'/>
<path d="M-1322 -749h3030v3030H-1322z" stroke='#000' stroke-width='10' fill='none' clip-path='url(#clip)'/>
<path d="M-1352 -779h3090v3090H-1352z" stroke='#000' stroke-width='10' fill='none' clip-path='url(#clip)'/>
<path d="M-1382 -809h3150v3150H-1382z" stroke='#000' stroke-width='10' fill='none' clip-path='url(#clip)'/>
<path d="M-1412 -839h3210v3210H-1412z" stroke='#000' stroke-width='10' fill='none' clip-path='url(#clip)'/>
<path d="M-1442 -869h3270v3270H-1442z" stroke='#000' stroke-width='10' fill='none' clip-path='url(#clip)'/>
<path d="M-1472 -899h3330v3330H-1472z" stroke='#000' stroke-width='10' fill='none' clip-path='url(#clip)'/>
<path d="M-1502 -929h3390v3390H-1502z" stroke='#000' stroke-width='10' fill='none' clip-path='url(#clip)'/>
<path d="M-1532 -959h3450v3450H-1532z" stroke='#000' stroke-width='10' fill='none' clip-path='url(#clip)'/>
<path d="M-1562 -989h3510v3510H-1562z" stroke='#000' stroke-width='10' fill='none' clip-path='url(#clip)'/>
<path d="M-1592 -1019h3570v3570H-1592z" stroke='#000' stroke-width='10' fill='none' clip-path='url(#clip)'/>
<path d="M-1622 -1049h3630v3630H-1622z" stroke='#000' stroke-width='10' fill='none' clip-path='url(#clip)'/>
<path d="M-1652 -1079h3690v3690H-1652z" stroke='#000' stroke-width='10' fill='none' clip-path='url(#clip)'/>
<path d="M-1682 -1109h3750v3750H-1682z" stroke='#000' stroke-width='10' fill='none' clip-path='url(#clip)'/>
<path d="M-1712 -1139h3810v3810H-1712z" stroke='#000' stroke-width='10' fill='none' clip-path='url(#clip)'/>
<path d="M-1742 -1169h3870v3870H-1742z" stroke='#000' stroke-width='10' fill='none' clip-path='url(#clip)'/>
<path d="M-1772 -1199h3930v3930H-1772z" stroke='#000' stroke-width='10' fill='none' clip-path='url(#clip)'/>
<path d="M-1802 -1229h3990v3990H-1802z" stroke='#000' stroke-width='10' fill='none' clip-path='url(#clip)'/>
<path d="M-1832 -1259h4050v4050H-1832z" stroke='#000' stroke-width='10' fill='none' clip-path='url(#clip)'/>
<path d="M-1862 -1289h4110v4110H-1862z" stroke='#000' stroke-width='10' fill='none' clip-path='url(#clip)'/>
<path d="M-1892 -1319h4170v4170H-1892z" stroke='#000' stroke-width='10' fill='none' clip-path='url(#clip)'/>
<path d="M2308 59.0h5316v5316H2308z" stroke='#000' stroke-width='10' fill='none' clip-path='url(#clip)'/>
<path d="M2338 89.0h5256v5256H2338z" stroke='#000' stroke-width='10' fill='none' clip-path='url(#clip)'/>
<path d="M2368 119.0h5196v5196H2368z" stroke='#000' stroke-width='10' fill='none' clip-path='url(#clip)'/>
<path d="M2398 149.0h5136v5136H2398z" stroke='#000' stroke-width='10' fill='none' clip-path='url(#clip)'/>
<path d="M2428 179.0h5076v5076H2428z" stroke='#000' stroke-width='10' fill='none' clip-path='url(#clip)'/>
<path d="M2458 209.0h5016v5016H2458z" stroke='#000' stroke-width='10' fill='none' clip-path='url(#clip)'/>
<path d="M2488 239.0h4956v4956H2488z" stroke='#000' stroke-width='10' fill='none' clip-path='url(#clip)'/>
<path d="M2518 269.0h4896v4896H2518z" stroke='#000' stroke-width='10' fill='none' clip-path='url(#clip)'/>
<path d="M2548 299.0h4836v4836H2548z" stroke='#000' stroke-width='10' fill='none' clip-path='url(#clip)'/>
<path d="M2578 329.0h4776v4776H2578z" stroke='#000' stroke-width='10' fill='none' clip-path='url(#clip)'/>
<path d="M2608 359.0h4716v4716H2608z" stroke='#000' stroke-width='10' fill='none' clip-path='url(#clip)'/>
<path d="M2638 389.0h4656v4656H2638z" stroke='#000' stroke-width='10' fill='none' clip-path='url(#clip)'/>
<path d="M2668 419.0h4596v4596H2668z" stroke='#000' stroke-width='10' fill='none' clip-path='url(#clip)'/>
<path d="M2698 449.0h4536v4536H2698z" stroke='#000' stroke-width='10' fill='none' clip-path='url(#clip)'/>
<path d="M2728 479.0h4476v4476H2728z" stroke='#000' stroke-width='10' fill='none' clip-path='url(#clip)'/>
<path d="M2758 509.0h4416v4416H2758z" stroke='#000' stroke-width='10' fill='none' clip-path='url(#clip)'/>
<path d="M2788 539.0h4356v4356H2788z" stroke='#000' stroke-width='10' fill='none' clip-path='url(#clip)'/>
<path d="M2818 569.0h4296v4296H2818z" stroke='#000' stroke-width='10' fill='none' clip-path='url(#clip)'/>
<path d="M2848 599.0h4236v4236H2848z" stroke='#000' stroke-width='10' fill='none' clip-path='url(#clip)'/>
<path d="M2878 629.0h4176v4176H2878z" stroke='#000' stroke-width='10' fill='none' clip-path='url(#clip)'/>
<path d="M2908 659.0h4116v4116H2908z" stroke='#000' stroke-width='10' fill='none' clip-path='url(#clip)'/>
<path d="M2938 689.0h4056v4056H2938z" stroke='#000' stroke-width='10' fill='none' clip-path='url(#clip)'/>
<path d="M2968 719.0h3996v3996H2968z" stroke='#000' stroke-width='10' fill='none' clip-path='url(#clip)'/>
<path d="M2998 749.0h3936v3936H2998z" stroke='#000' stroke-width='10' fill='none' clip-path='url(#clip)'/>
<path d="M3028 779.0h3876v3876H3028z" stroke='#000' stroke-width='10' fill='none' clip-path='url(#clip)'/>
<path d="M3058 809.0h3816v3816H3058z" stroke='#000' stroke-width='10' fill='none' clip-path='url(#clip)'/>
<path d="M3088 839.0h3756v3756H3088z" stroke='#000' stroke-width='10' fill='none' clip-path='url(#clip)'/>
<path d="M3118 869.0h3696v3696H3118z" stroke='#000' stroke-width='10' fill='none' clip-path='url(#clip)'/>
<path d="M3148 899.0h3636v3636H3148z" stroke='#000' stroke-width='10' fill='none' clip-path='url(#clip)'/>
<path d="M3178 929.0h3576v3576H3178z" stroke='#000' stroke-width='10' fill='none' clip-path='url(#clip)'/>
<path d="M3208 959.0h3516v3516H3208z" stroke='#000' stroke-width='10' fill='none' clip-path='url(#clip)'/>
<path d="M3238 989.0h3456v3456H3238z" stroke='#000' stroke-width='10' fill='none' clip-path='url(#clip)'/>
<path d="M3268 1019.0h3396v3396H3268z" stroke='#000' stroke-width='10' fill='none' clip-path='url(#clip)'/>
<path d="M3298 1049.0h3336v3336H3298z" stroke='#000' stroke-width='10' fill='none' clip-path='url(#clip)'/>
<path d="M3328 1079.0h3276v3276H3328z" stroke='#000' stroke-width='10' fill='none' clip-path='url(#clip)'/>
<path d="M3358 1109.0h3216v3216H3358z" stroke='#000' stroke-width='10' fill='none' clip-path='url(#clip)'/>
<path d="M3388 1139.0h3156v3156H3388z" stroke='#000' stroke-width='10' fill='none' clip-path='url(#clip)'/>
<path d="M3418 1169.0h3096v3096H3418z" stroke='#000' stroke-width='10' fill='none' clip-path='url(#clip)'/>
<path d="M3448 1199.0h3036v3036H3448z" stroke='#000' stroke-width='10' fill='none' clip-path='url(#clip)'/>
<path d="M3478 1229.0h2976v2976H3478z" stroke='#000' stroke-width='10' fill='none' clip-path='url(#clip)'/>
<path d="M3508 1259.0h2916v2916H3508z" stroke='#000' stroke-width='10' fill='none' clip-path='url(#clip)'/>
<path d="M3538 1289.0h2856v2856H3538z" stroke='#000' stroke-width='10' fill='none' clip-path='url(#clip)'/>
<path d="M3568 1319.0h2796v2796H3568z" stroke='#000' stroke-width='10' fill='none' clip-path='url(#clip)'/>
<path d="M3598 1349.0h2736v2736H3598z" stroke='#000' stroke-width='10' fill='none' clip-path='url(#clip)'/>
<path d="M3628 1379.0h2676v2676H3628z" stroke='#000' stroke-width='10' fill='none' clip-path='url(#clip)'/>
<path d="M3658 1409.0h2616v2616H3658z" stroke='#000' stroke-width='10' fill='none' clip-path='url(#clip)'/>
<path d="M3688 1439.0h2556v2556H3688z" stroke='#000' stroke-width='10' fill='none' clip-path='url(#clip)'/>
<path d="M3718 1469.0h2496v2496H3718z" stroke='#000' stroke-width='10' fill='none' clip-path='url(#clip)'/>
<path d="M3748 1499.0h2436v2436H3748z" stroke='#000' stroke-width='10' fill='none' clip-path='url(#clip)'/>
<path d="M3778 1529.0h2376v2376H3778z" stroke='#000' stroke-width='10' fill='none' clip-path='url(#clip)'/>
<path d="M3808 1559.0h2316v2316H3808z" stroke='#000' stroke-width='10' fill='none' clip-path='url(#clip)'/>
<path d="M3838 1589.0h2256v2256H3838z" stroke='#000' stroke-width='10' fill='none' clip-path='url(#clip)'/>
<path d="M3868 1619.0h2196v2196H3868z" stroke='#000' stroke-width='10' fill='none' clip-path='url(#clip)'/>
<path d="M3898 1649.0h2136v2136H3898z" stroke='#000' stroke-width='10' fill='none' clip-path='url(#clip)'/>
<path d="M3928 1679.0h2076v2076H3928z" stroke='#000' stroke-width='10' fill='none' clip-path='url(#clip)'/>
<path d="M3958 1709.0h2016v2016H3958z" stroke='#000' stroke-width='10' fill='none' clip-path='url(#clip)'/>
<path d="M3988 1739.0h1956v1956H3988z" stroke='#000' stroke-width='10' fill='none' clip-path='url(#clip)'/>
<path d="M4018 1769.0h1896v1896H4018z" stroke='#000' stroke-width='10' fill='none' clip-path='url(#clip)'/>
<path d="M4048 1799.0h1836v1836H4048z" stroke='#000' stroke-width='10' fill='none' clip-path='url(#clip)'/>
<path d="M4078 1829.0h1776v1776H4078z" stroke='#000' stroke-width='10' fill='none' clip-path='url(#clip)'/>
<path d="M4108 1859.0h1716v1716H4108z" stroke='#000' stroke-width='10' fill='none' clip-path='url(#clip)'/>
<path d="M4138 1889.0h1656v1656H4138z" stroke='#000' stroke-width='10' fill='none' clip-path='url(#clip)'/>
<path d="M4168 1919.0h1596v1596H4168z" stroke='#000' stroke-width='10' fill='none' clip-path='url(#clip)'/>
<path d="M4198 1949.0h1536v1536H4198z" stroke='#000' stroke-width='10' fill='none' clip-path='url(#clip)'/>
<path d="M4228 1979.0h1476v1476H4228z" stroke='#000' stroke-width='10' fill='none' clip-path='url(#clip)'/>
<path d="M4258 2009.0h1416v1416H4258z" stroke='#000' stroke-width='10' fill='none' clip-path='url(#clip)'/>
<path d="M4288 2039.0h1356v1356H4288z" stroke='#000' stroke-width='10' fill='none' clip-path='url(#clip)'/>
<path d="M4318 2069.0h1296v1296H4318z" stroke='#000' stroke-width='10' fill='none' clip-path='url(#clip)'/>
<path d="M4348 2099.0h1236v1236H4348z" stroke='#000' stroke-width='10' fill='none' clip-path='url(#clip)'/>
<path d="M4378 2129.0h1176v1176H4378z" stroke='#000' stroke-width='10' fill='none' clip-path='url(#clip)'/>
<path d="M4408 2159.0h1116v1116H4408z" stroke='#000' stroke-width='10' fill='none' clip-path='url(#clip)'/>
<path d="M4438 2189.0h1056v1056H4438z" stroke='#000' stroke-width='10' fill='none' clip-path='url(#clip)'/>
<path d="M4468 2219.0h996v996H4468z" stroke='#000' stroke-width='10' fill='none' clip-path='url(#clip)'/>
<path d="M4498 2249.0h936v936H4498z" stroke='#000' stroke-width='10' fill='none' clip-path='url(#clip)'/>
<path d="M4528 2279.0h876v876H4528z" stroke='#000' stroke-width='10' fill='none' clip-path='url(#clip)'/>
<path d="M4558 2309.0h816v816H4558z" stroke='#000' stroke-width='10' fill='none' clip-path='url(#clip)'/>
<path d="M4588 2339.0h756v756H4588z" stroke='#000' stroke-width='10' fill='none' clip-path='url(#clip)'/>
<path d="M4618 2369.0h696v696H4618z" stroke='#000' stroke-width='10' fill='none' clip-path='url(#clip)'/>
<path d="M4648 2399.0h636v636H4648z" stroke='#000' stroke-width='10' fill='none' clip-path='url(#clip)'/>
<path d="M4678 2429.0h576v576H4678z" stroke='#000' stroke-width='10' fill='none' clip-path='url(#clip)'/>
<path d="M4708 2459.0h516v516H4708z" stroke='#000' stroke-width='10' fill='none' clip-path='url(#clip)'/>
<path d="M4738 2489.0h456v456H4738z" stroke='#000' stroke-width='10' fill='none' clip-path='url(#clip)'/>
<path d="M4768 2519.0h396v396H4768z" stroke='#000' stroke-width='10' fill='none' clip-path='url(#clip)'/>
<path d="M4798 2549.0h336v336H4798z" stroke='#000' stroke-width='10' fill='none' clip-path='url(#clip)'/>
<path d="M4828 2579.0h276v276H4828z" stroke='#000' stroke-width='10' fill='none' clip-path='url(#clip)'/>
<path d="M4858 2609.0h216v216H4858z" stroke='#000' stroke-width='10' fill='none' clip-path='url(#clip)'/>
<path d="M4888 2639.0h156v156H4888z" stroke='#000' stroke-width='10' fill='none' clip-path='url(#clip)'/>
<path d="M4918 2669.0h96v96H4918z" stroke='#000' stroke-width='10' fill='none' clip-path='url(#clip)'/>
<path d="M4948 2699.0h36v36H4948z" stroke='#000' stroke-width='10' fill='none' clip-path='url(#clip)'/>
</svg>
